<svg width="33" height="33" viewBox="0 0 33 33" fill="none" xmlns="http://www.w3.org/2000/svg">
<g clip-path="url(#clip0_2506_4545)">
<path d="M31.9419 17.0956C31.9419 16.0074 31.8537 14.9133 31.6655 13.8428H16.5659V20.0073H25.2127C24.8539 21.9955 23.701 23.7542 22.0128 24.8718V28.8717H27.1715C30.2008 26.0836 31.9419 21.9661 31.9419 17.0956Z" fill="#4285F4"/>
<path d="M16.5659 32.7362C20.8835 32.7362 24.5245 31.3186 27.1774 28.8716L22.0187 24.8717C20.5835 25.8482 18.7306 26.4011 16.5718 26.4011C12.3955 26.4011 8.85441 23.5835 7.58387 19.7954H2.2605V23.9188C4.97806 29.3245 10.5132 32.7362 16.5659 32.7362Z" fill="#34A853"/>
<path d="M7.57799 19.7951C6.90742 17.8069 6.90742 15.6541 7.57799 13.6659V9.54248H2.26051C-0.0100124 14.0659 -0.0100124 19.3951 2.26051 23.9185L7.57799 19.7951Z" fill="#FBBC04"/>
<path d="M16.5659 7.05444C18.8482 7.01915 21.054 7.87794 22.7069 9.45437L27.2774 4.88392C24.3834 2.16636 20.5423 0.672283 16.5659 0.719341C10.5132 0.719341 4.97806 4.131 2.2605 9.5426L7.57798 13.666C8.84265 9.872 12.3896 7.05444 16.5659 7.05444Z" fill="#EA4335"/>
</g>
<defs>
<clipPath id="clip0_2506_4545">
<rect width="32.0167" height="32.0167" fill="white" transform="translate(0.237549 0.718262)"/>
</clipPath>
</defs>
</svg>
